{
    "asset" : {
        "generator" : "Khronos glTF Blender I/O v1.5.2",
        "version" : "2.0"
    },
    "scene" : 0,
    "scenes" : [
        {
            "name" : "Scene",
            "nodes" : [
                0,
                1,
                2
            ]
        }
    ],
    "nodes" : [
        {
            "mesh" : 0,
            "name" : "card",
            "rotation" : [
                0,
                1,
                0,
                -4.371138828673793e-08
            ],
            "scale" : [
                0.3574399948120117,
                0.3574400246143341,
                0.3574400246143341
            ]
        },
        {
            "name" : "Point",
            "translation" : [
                0.1008310317993164,
                -0.22727727890014648,
                7.559712886810303
            ]
        },
        {
            "camera" : 0,
            "name" : "Camera",
            "translation" : [
                0,
                0,
                14.138259887695312
            ]
        }
    ],
    "cameras" : [
        {
            "name" : "Camera",
            "perspective" : {
                "aspectRatio" : 1.7777777777777777,
                "yfov" : 0.39959652046304894,
                "zfar" : 1000,
                "znear" : 0.10000000149011612
            },
            "type" : "perspective"
        }
    ],
    "materials" : [
        {
            "name" : "back",
            "normalTexture" : {
                "index" : 0,
                "texCoord" : 0
            },
            "pbrMetallicRoughness" : {
                "baseColorTexture" : {
                    "index" : 1,
                    "texCoord" : 0
                },
                "metallicRoughnessTexture" : {
                    "index" : 2,
                    "texCoord" : 0
                }
            }
        },
        {
            "name" : "front",
            "normalTexture" : {
                "index" : 3,
                "texCoord" : 0
            },
            "pbrMetallicRoughness" : {
                "baseColorTexture" : {
                    "index" : 4,
                    "texCoord" : 0
                },
                "metallicRoughnessTexture" : {
                    "index" : 5,
                    "texCoord" : 0
                }
            }
        },
        {
            "doubleSided" : true,
            "name" : "gold",
            "pbrMetallicRoughness" : {
                "baseColorFactor" : [
                    1,
                    0.7991412878036499,
                    0.23171894252300262,
                    1
                ],
                "roughnessFactor" : 0.22272726893424988
            }
        }
    ],
    "meshes" : [
        {
            "name" : "000-Mesh.051",
            "primitives" : [
                {
                    "attributes" : {
                        "POSITION" : 0,
                        "NORMAL" : 1,
                        "TEXCOORD_0" : 2
                    },
                    "indices" : 3,
                    "material" : 0
                },
                {
                    "attributes" : {
                        "POSITION" : 4,
                        "NORMAL" : 5,
                        "TEXCOORD_0" : 6
                    },
                    "indices" : 7,
                    "material" : 1
                },
                {
                    "attributes" : {
                        "POSITION" : 8,
                        "NORMAL" : 9,
                        "TEXCOORD_0" : 10
                    },
                    "indices" : 11,
                    "material" : 2
                }
            ]
        }
    ],
    "textures" : [
        {
            "sampler" : 0,
            "source" : 0
        },
        {
            "sampler" : 0,
            "source" : 1
        },
        {
            "sampler" : 0,
            "source" : 2
        },
        {
            "sampler" : 0,
            "source" : 3
        },
        {
            "sampler" : 0,
            "source" : 4
        },
        {
            "sampler" : 0,
            "source" : 5
        }
    ],
    "images" : [
        {
            "bufferView" : 4,
            "mimeType" : "image/png",
            "name" : "tarot-back-gold-normal"
        },
        {
            "bufferView" : 5,
            "mimeType" : "image/png",
            "name" : "elements-index-back"
        },
        {
            "bufferView" : 6,
            "mimeType" : "image/png",
            "name" : "tarot-back-gold-mr"
        },
        {
            "bufferView" : 11,
            "mimeType" : "image/png",
            "name" : "tarot-front-gold-normal"
        },
        {
            "bufferView" : 12,
            "mimeType" : "image/png",
            "name" : "elements-index-front"
        },
        {
            "bufferView" : 13,
            "mimeType" : "image/png",
            "name" : "tarot-front-gold-mr"
        }
    ],
    "accessors" : [
        {
            "bufferView" : 0,
            "componentType" : 5126,
            "count" : 155,
            "max" : [
                4.485000133514404,
                7.485000133514404,
                0.08398986607789993
            ],
            "min" : [
                -4.485000133514404,
                -7.485000133514404,
                0.08398986607789993
            ],
            "type" : "VEC3"
        },
        {
            "bufferView" : 1,
            "componentType" : 5126,
            "count" : 155,
            "type" : "VEC3"
        },
        {
            "bufferView" : 2,
            "componentType" : 5126,
            "count" : 155,
            "type" : "VEC2"
        },
        {
            "bufferView" : 3,
            "componentType" : 5123,
            "count" : 201,
            "type" : "SCALAR"
        },
        {
            "bufferView" : 7,
            "componentType" : 5126,
            "count" : 154,
            "max" : [
                4.485000133514404,
                7.485000133514404,
                0.009999999776482582
            ],
            "min" : [
                -4.485000133514404,
                -7.485000133514404,
                0.009999999776482582
            ],
            "type" : "VEC3"
        },
        {
            "bufferView" : 8,
            "componentType" : 5126,
            "count" : 154,
            "type" : "VEC3"
        },
        {
            "bufferView" : 9,
            "componentType" : 5126,
            "count" : 154,
            "type" : "VEC2"
        },
        {
            "bufferView" : 10,
            "componentType" : 5123,
            "count" : 201,
            "type" : "SCALAR"
        },
        {
            "bufferView" : 14,
            "componentType" : 5126,
            "count" : 138,
            "max" : [
                4.485000133514404,
                7.485000133514404,
                0.08398986607789993
            ],
            "min" : [
                -4.485000133514404,
                -7.485000133514404,
                0.009999999776482582
            ],
            "type" : "VEC3"
        },
        {
            "bufferView" : 15,
            "componentType" : 5126,
            "count" : 138,
            "type" : "VEC3"
        },
        {
            "bufferView" : 16,
            "componentType" : 5126,
            "count" : 138,
            "type" : "VEC2"
        },
        {
            "bufferView" : 17,
            "componentType" : 5123,
            "count" : 414,
            "type" : "SCALAR"
        }
    ],
    "bufferViews" : [
        {
            "buffer" : 0,
            "byteLength" : 1860,
            "byteOffset" : 0
        },
        {
            "buffer" : 0,
            "byteLength" : 1860,
            "byteOffset" : 1860
        },
        {
            "buffer" : 0,
            "byteLength" : 1240,
            "byteOffset" : 3720
        },
        {
            "buffer" : 0,
            "byteLength" : 402,
            "byteOffset" : 4960
        },
        {
            "buffer" : 0,
            "byteLength" : 551074,
            "byteOffset" : 5364
        },
        {
            "buffer" : 0,
            "byteLength" : 488807,
            "byteOffset" : 556440
        },
        {
            "buffer" : 0,
            "byteLength" : 162497,
            "byteOffset" : 1045248
        },
        {
            "buffer" : 0,
            "byteLength" : 1848,
            "byteOffset" : 1207748
        },
        {
            "buffer" : 0,
            "byteLength" : 1848,
            "byteOffset" : 1209596
        },
        {
            "buffer" : 0,
            "byteLength" : 1232,
            "byteOffset" : 1211444
        },
        {
            "buffer" : 0,
            "byteLength" : 402,
            "byteOffset" : 1212676
        },
        {
            "buffer" : 0,
            "byteLength" : 70061,
            "byteOffset" : 1213080
        },
        {
            "buffer" : 0,
            "byteLength" : 100170,
            "byteOffset" : 1283144
        },
        {
            "buffer" : 0,
            "byteLength" : 57640,
            "byteOffset" : 1383316
        },
        {
            "buffer" : 0,
            "byteLength" : 1656,
            "byteOffset" : 1440956
        },
        {
            "buffer" : 0,
            "byteLength" : 1656,
            "byteOffset" : 1442612
        },
        {
            "buffer" : 0,
            "byteLength" : 1104,
            "byteOffset" : 1444268
        },
        {
            "buffer" : 0,
            "byteLength" : 828,
            "byteOffset" : 1445372
        }
    ],
    "samplers" : [
        {
            "magFilter" : 9729,
            "minFilter" : 9986
        }
    ],
    "buffers" : [
        {
            "byteLength" : 1446200,
            "uri" : "data:application/octet-stream;base64,"
        }
    ]
}
